<svg width="148" height="30" viewBox="0 0 148 30" fill="none" xmlns="http://www.w3.org/2000/svg">
<mask id="mask0_2260_4051" style="mask-type:luminance" maskUnits="userSpaceOnUse" x="0" y="0" width="148" height="30">
<path d="M147.848 0.5H0V29.5H147.848V0.5Z" fill="white"/>
</mask>
<g mask="url(#mask0_2260_4051)">
<path d="M5.24328 24.7422C4.49886 24.7422 3.75444 24.6775 3.01002 24.4833C2.42743 24.3214 1.87721 24.0301 1.42408 23.6417C0.93859 23.1886 0.582563 22.6384 0.388366 22.0234C0.0970702 21.1496 -0.0323941 20.2433 -2.78731e-05 19.3371V0.5H4.53123V5.29018H9.22431V9.23884H4.53123V18.3984C4.53123 20.0167 5.37274 20.8906 6.92632 20.8906C7.67074 20.923 8.44752 20.7935 9.15957 20.567V23.8683C8.64172 24.1272 8.09149 24.3214 7.57364 24.4509C6.79685 24.6451 6.02007 24.7422 5.24328 24.7422Z" fill="#04060C"/>
<path d="M77.7432 24.7422C73.568 24.7422 69.6517 22.3471 68.1952 18.366C66.8035 14.4174 68.0658 10.0156 71.3671 7.42631C74.7979 4.90176 79.3939 4.5781 83.0836 6.6819C86.6762 8.78569 88.5211 12.9609 87.6796 17.039C86.8381 21.0848 83.3425 24.0948 79.2968 24.6451C78.8113 24.7098 78.2934 24.7422 77.7432 24.7422ZM77.7432 8.85042C75.251 8.85042 73.0501 10.5011 72.3704 12.8962C71.6584 15.2589 72.241 17.9777 74.1506 19.6283C76.0278 21.2143 78.7466 21.4408 80.8504 20.1785C82.9541 18.8839 83.828 16.2299 83.4073 13.8672C82.9541 11.0837 80.5914 8.85042 77.7432 8.85042Z" fill="#04060C"/>
<path d="M130.241 5.29019V9.23885H142.799L131.633 29.5H136.812L147.848 8.85046V5.29019H130.241Z" fill="#04060C"/>
<path d="M98.7164 5.29019H90.2041V24.7422H94.7354V9.23885H98.8782C99.8492 9.20649 100.788 9.56251 101.5 10.2422C102.762 11.5692 102.762 14.5793 102.762 16.942V24.7422H107.293V13.8025C107.261 6.39064 101.921 5.29019 98.7164 5.29019Z" fill="#04060C"/>
<path d="M17.51 5.29019H12.4609V24.7422H16.9922V9.23885H21.7176L17.51 5.29019Z" fill="#04060C"/>
<path d="M38.6453 22.5737C37.9009 23.3828 37.027 24.0625 36.0884 24.5804C34.9232 25.1953 33.6609 25.4866 32.3339 25.4543C31.2335 25.4866 30.1654 25.163 29.3239 24.4833C28.5147 23.8036 28.0616 22.8002 28.094 21.7645V21.6998C28.0616 20.5022 28.6765 19.4018 29.6799 18.7868C30.6509 18.1719 32.0102 17.8482 33.7256 17.8482H34.5024L35.2145 14.9676L29.5504 9.23885H40.4578V5.29019H23.9511V8.85046L30.1654 14.7411H30.1006C29.2591 14.8705 28.4176 15.0971 27.6085 15.4208C26.864 15.7121 26.152 16.1328 25.537 16.6507C24.9221 17.2009 24.4366 17.8482 24.0806 18.5926C23.6922 19.4989 23.498 20.4699 23.5303 21.4732V21.538C23.5303 22.6384 23.7245 23.7065 24.1453 24.7098C24.5337 25.6485 25.1486 26.5223 25.8931 27.2344C26.7022 27.9788 27.6408 28.529 28.6765 28.8851C29.8741 29.3058 31.1364 29.5 32.3986 29.4676C34.6643 29.4676 36.5739 29.0793 38.1598 28.2701C39.5192 27.5904 40.7491 26.6518 41.7848 25.519L38.6453 22.5737Z" fill="#04060C"/>
<path d="M112.31 22.5737C113.054 23.3828 113.928 24.0625 114.899 24.5804C116.065 25.1953 117.327 25.4866 118.654 25.4543C119.754 25.4866 120.822 25.163 121.664 24.4833C122.473 23.8036 122.926 22.8002 122.894 21.7645V21.6998C122.926 20.5022 122.311 19.4018 121.308 18.7868C120.337 18.1719 118.977 17.8482 117.262 17.8482H116.485L115.773 14.9676L121.405 9.23885H110.498V5.29019H127.004V8.85046L120.79 14.7411H120.822C121.664 14.8705 122.505 15.0971 123.315 15.4208C124.059 15.7121 124.771 16.1328 125.386 16.6507C126.001 17.2009 126.519 17.8806 126.842 18.625C127.231 19.5313 127.425 20.5022 127.393 21.5056V21.5703C127.393 22.6708 127.198 23.7389 126.778 24.7422C126.389 25.6808 125.774 26.5547 125.03 27.2668C124.221 28.0112 123.282 28.5614 122.246 28.9174C121.049 29.3382 119.787 29.5324 118.524 29.5C116.259 29.5 114.349 29.1116 112.763 28.3025C111.404 27.6228 110.174 26.6842 109.138 25.5514L112.31 22.5737Z" fill="#04060C"/>
<path d="M48.9698 24.7422C48.2254 24.7422 47.481 24.6775 46.7366 24.4833C46.154 24.3214 45.6038 24.0301 45.1506 23.6417C44.6975 23.1886 44.3091 22.6384 44.1149 22.0234C43.8236 21.1496 43.6942 20.2433 43.7265 19.3371V0.5H48.2578V5.29018H52.9509V9.23884H48.2578V18.3984C48.2578 20.0167 49.0993 20.8906 50.6529 20.8906C51.3973 20.923 52.1741 20.7935 52.8861 20.567V23.8683C52.3683 24.0949 51.8504 24.2891 51.3002 24.4185C50.5234 24.6451 49.7466 24.7422 48.9698 24.7422Z" fill="#04060C"/>
<path d="M61.3985 24.7422C60.6541 24.7422 59.9097 24.6775 59.1653 24.4833C58.5827 24.3214 58.0325 24.0301 57.5794 23.6417C57.1262 23.1886 56.7378 22.6384 56.5436 22.0234C56.2523 21.1496 56.1229 20.2433 56.1552 19.3371V0.5H60.6865V5.29018H65.3796V9.23884H60.7189V18.3984C60.7189 20.0167 61.5604 20.8906 63.114 20.8906C63.8584 20.923 64.6352 20.7935 65.3472 20.567V23.8683C64.8617 24.0949 64.3439 24.2891 63.7936 24.4185C62.9845 24.6451 62.2077 24.7422 61.3985 24.7422Z" fill="#04060C"/>
</g>
</svg>
